# xmcd CD database file
#
# Track frame offsets:
#	150
#	16427
#	37711
#	46317
#	58391
#	61455
#	74660
#	81168
#	94356
#	112475
#	126262
#	131812
#	136515
#	148792
#	153783
#	165552
#	189915
#	203131
#	214894
#
# Disc length: 3001 seconds
#
# Revision: 3
# Processed by: cddbd v1.5.1PL2 Copyright (c) Steve Scherf et al.
# Submitted via: CDex 1.51
#
DISCID=1f0bb713
DTITLE=Erdmann/Soo‰‰r Dessert Time - Peer Gynt and Other Stories
DYEAR=2004
DGENRE=Jazz
TTITLE0=1984 (Erdmann)
TTITLE1=Putukate kogujate ekskursioon (Soo‰‰r)
TTITLE2=Morning (Grieg)
TTITLE3=Duo (Erdmann)
TTITLE4=Hygge (Soo‰‰r)
TTITLE5=Goluboi Vagon (Shainski)
TTITLE6=Aase's Death (Grieg)
TTITLE7=What's This Thing Called Morss (Erdmann/Soo‰‰r)
TTITLE8=Simple (Schrˆder)
TTITLE9=Anitra's Dance (Grieg)
TTITLE10=In A Russian Style (Bartok)
TTITLE11=You Look Like A Horse (Erdmann/Soo‰‰r)
TTITLE12=Portrait Of A Small Plant (Soo‰‰r)
TTITLE13=In The Hall Of The Mountain King (Grieg)
TTITLE14=December (Soo‰‰r)
TTITLE15=Gone With The Sun (Soo‰‰r)
TTITLE16=Waltz For A.A. (Soo‰‰r)
TTITLE17=Solveig's Song (Grieg)
TTITLE18=Lambada (De Oliveira/Hermoza)
EXTD=YEAR: 2004
EXTT0=
EXTT1=
EXTT2=
EXTT3=
EXTT4=
EXTT5=
EXTT6=
EXTT7=
EXTT8=
EXTT9=
EXTT10=
EXTT11=
EXTT12=
EXTT13=
EXTT14=
EXTT15=
EXTT16=
EXTT17=
EXTT18=
PLAYORDER=
